HIERARCHY
ROOT Hips
{
  OFFSET 0 0 0
  CHANNELS 6 Xposition Yposition Zposition Zrotation Xrotation Yrotation
  JOINT Spine
  {
    OFFSET 0 10 0
    CHANNELS 3 Zrotation Xrotation Yrotation
    JOINT Neck
    {
      OFFSET 0 30 0
      CHANNELS 3 Zrotation Xrotation Yrotation
      JOINT Head
      {
        OFFSET 0 8 0
        CHANNELS 3 Zrotation Xrotation Yrotation
        End Site
        {
          OFFSET 0 10 0
        }
      }
    }
    JOINT LeftArm
    {
      OFFSET 15 30 0
      CHANNELS 3 Zrotation Xrotation Yrotation
      JOINT LeftForeArm
      {
        OFFSET 25 0 0
        CHANNELS 3 Zrotation Xrotation Yrotation
        JOINT LeftHand
        {
          OFFSET 25 0 0
          CHANNELS 3 Zrotation Xrotation Yrotation
          End Site
          {
            OFFSET 10 0 0
          }
        }
      }
    }
    JOINT RightArm
    {
      OFFSET -15 30 0
      CHANNELS 3 Zrotation Xrotation Yrotation
      JOINT RightForeArm
      {
        OFFSET -25 0 0
        CHANNELS 3 Zrotation Xrotation Yrotation
        JOINT RightHand
        {
          OFFSET -25 0 0
          CHANNELS 3 Zrotation Xrotation Yrotation
          End Site
          {
            OFFSET -10 0 0
          }
        }
      }
    }
  }
  JOINT LeftUpLeg
  {
    OFFSET 10 -10 0
    CHANNELS 3 Zrotation Xrotation Yrotation
    JOINT LeftLeg
    {
      OFFSET 0 -35 0
      CHANNELS 3 Zrotation Xrotation Yrotation
      JOINT LeftToe
      {
        OFFSET 0 -40 0
        CHANNELS 3 Zrotation Xrotation Yrotation
        JOINT LeftToeEnd
        {
          OFFSET 0 0 0
          CHANNELS 3 Zrotation Xrotation Yrotation
          End Site
          {
            OFFSET 0 0 15
          }
        }
      }
    }
  }
  JOINT RightUpLeg
  {
    OFFSET -10 -10 0
    CHANNELS 3 Zrotation Xrotation Yrotation
    JOINT RightLeg
    {
      OFFSET 0 -35 0
      CHANNELS 3 Zrotation Xrotation Yrotation
      JOINT RightToe
      {
        OFFSET 0 -40 0
        CHANNELS 3 Zrotation Xrotation Yrotation
        JOINT RightToeEnd
        {
          OFFSET 0 0 0
          CHANNELS 3 Zrotation Xrotation Yrotation
          End Site
          {
            OFFSET 0 0 15
          }
        }
      }
    }
  }
}
MOTION
Frames:	7
Frame Time:	0.0333333 
5.71887 87.1285 -89.0349 1.21166 6.17742 0.354343 -0.605086 4.45322 0.20902 -5.60138 -17.8791 -4.08427 8.44305 15.97 -6.84331 -86.3257 19.9711 -5.64586 11.1587 -2.44027 -21.84 -0.657453 6.7169 -2.54274 89.4512 15.3872 3.20891 -14.9544 -4.27445 25.1471 0.699895 4.85669 -0.424811 -1.00001 -13.9097 -2.18329 0.00332037 27.1466 -0.539242 -0.392562 -19.4715 3.78493 -3.88251e-019 0 -0 0.319643 -14.3298 3.45097 -0.952056 29.481 0.883792 -1.03182 -21.1381 -11.3892 2.09656e-017 0 -7.95139e-016 
5.70371 87.0907 -89.1018 1.3462 6.72435 0.887461 -0.808323 4.41711 -0.148341 -5.62017 -18.9853 -4.14898 8.50807 17.1323 -6.73423 -86.0569 20.1488 -6.14073 11.1059 -2.41743 -21.7129 -0.671225 6.49447 -2.5203 89.4898 15.3436 3.55422 -15.0229 -4.314 25.2635 0.70821 4.65388 -0.42553 -1.17818 -14.7969 -2.33332 0.00387617 27.3593 -0.481602 -0.472578 -19.4055 3.24283 -0 -2.48481e-017 -0 0.10103 -15.1084 3.1735 -0.941551 29.8772 0.922586 -1.0733 -21.2917 -11.6162 -1.73937e-016 0 -7.95139e-016 
5.70526 87.0637 -89.0554 1.46289 6.75255 0.725904 -0.898465 4.61685 -0.0648414 -5.78614 -19.3646 -4.15756 8.68777 17.674 -6.71099 -86.0385 20.1193 -6.28676 11.1261 -2.42052 -21.7354 -0.614352 6.72228 -2.56594 89.4571 15.1827 3.81795 -15.003 -4.30356 25.2249 0.700626 5.16421 -0.469301 -1.21458 -14.7744 -2.04094 0.00818705 27.396 -0.483714 -0.491731 -19.5335 2.9954 -7.76503e-019 0 -1.98785e-016 -0.00914176 -15.2502 3.26247 -0.933815 30.1459 0.948058 -1.12981 -21.4353 -11.6584 -3.10601e-017 0 -1.59028e-015 
5.73668 87.0366 -88.8906 1.55475 6.62203 0.608009 -0.897983 4.74927 -0.098103 -5.7453 -19.2584 -4.15577 8.54572 17.568 -6.73937 -86.1692 19.8698 -6.19398 11.0509 -2.38396 -21.5726 -0.562191 7.21139 -2.5716 89.472 15.2359 3.68136 -14.991 -4.289 25.1923 0.726218 4.98078 -0.485568 -1.31446 -14.4756 -1.9535 0.0126367 27.3536 -0.492014 -0.444065 -19.6456 3.06832 1.55301e-018 -2.48481e-017 3.97569e-016 -0.15307 -15.1518 3.14336 -0.939642 30.4225 0.957323 -1.30781 -21.6466 -11.6179 3.26131e-017 2.48481e-017 -1.59028e-015
5.75318 86.9954 -88.8184 1.80943 6.66566 0.496257 -1.12964 4.88994 -0.0787914 -5.66603 -19.599 -4.14184 8.43036 17.6912 -6.68117 -86.1688 19.8819 -6.14831 11.203 -2.48768 -21.9235 -0.39264 7.99134 -2.60921 89.4591 15.1281 3.81093 -15.0856 -4.31121 25.3368 0.854025 5.28561 -0.586413 -1.57145 -14.3498 -1.7049 0.00948783 27.2132 -0.487196 -0.393207 -19.6952 2.96469 7.76503e-019 0 3.97569e-016 -0.442131 -15.3936 3.16444 -0.925948 30.9098 0.96229 -1.38244 -21.9159 -11.6924 7.92033e-017 -2.48481e-017 1.59028e-015 
5.75306 86.9804 -88.7411 1.59726 6.76745 0.188045 -0.822593 4.92331 0.0527916 -5.73896 -18.8348 -4.0292 8.62352 16.6629 -6.53789 -86.3617 19.6083 -6.12666 11.5373 -2.45338 -22.4095 -0.177513 9.74282 -3.12356 89.3508 15.5844 3.74823 -15.159 -4.35956 25.4852 0.876008 4.73182 -0.596159 -1.31899 -14.5504 -1.66357 0.0119381 27.5074 -0.488812 -0.415799 -19.7983 3.20047 -1.55301e-018 1.2424e-017 -0 -0.0850702 -15.4708 3.62821 -0.920205 30.8247 0.951602 -1.53653 -21.8284 -11.8401 2.11209e-016 2.48481e-017 -0 
5.78602 86.9942 -88.6262 1.5929 6.73731 0.261613 -0.710087 5.02979 -0.00317399 -5.5225 -18.4284 -4.02669 8.02445 16.0339 -6.58996 -86.465 20.1794 -5.9735 11.3261 -2.54527 -22.2003 -0.580821 7.36883 -2.59017 89.213 15.3351 3.73341 -15.2968 -4.45923 25.8061 0.889334 6.16409 -0.680981 -1.31735 -14.4336 -1.59948 0.0191864 27.4329 -0.5079 -0.5005 -19.8073 3.06667 -6.60027e-018 0 1.98785e-016 -0.133487 -15.3192 3.60926 -0.915534 30.7648 0.950512 -1.6758 -21.8586 -11.8981 1.45982e-016 2.48481e-017 -7.95139e-016 
